<?xml version="1.0" encoding="UTF-8" standalone="no" ?>
<!DOCTYPE svg PUBLIC "-//W3C//DTD SVG 1.1//EN" "http://www.w3.org/Graphics/SVG/1.1/DTD/svg11.dtd">
<svg xmlns="http://www.w3.org/2000/svg" xmlns:xlink="http://www.w3.org/1999/xlink" version="1.1" width="1080" height="1080" viewBox="0 0 1080 1080" xml:space="preserve">
<desc>Created with Fabric.js 5.2.4</desc>
<defs>
</defs>
<g transform="matrix(1 0 0 1 540 540)" id="3907428b-10d8-43de-a6c6-7259f3903a7d"  >
<rect style="stroke: none; stroke-width: 1; stroke-dasharray: none; stroke-linecap: butt; stroke-dashoffset: 0; stroke-linejoin: miter; stroke-miterlimit: 4; fill: rgb(255,255,255); fill-rule: nonzero; opacity: 1; visibility: hidden;" vector-effect="non-scaling-stroke"  x="-540" y="-540" rx="0" ry="0" width="1080" height="1080" />
</g>
<g transform="matrix(1 0 0 1 540 540)" id="272c5396-cae7-40e1-a07d-113d1a424e85"  >
</g>
<g transform="matrix(1 0 0 1 540 540)" id="d54d51d2-d5fd-4400-a6c1-080ef77cd972"  >
<path style="stroke: rgb(255,255,255); stroke-width: 0; stroke-dasharray: none; stroke-linecap: butt; stroke-dashoffset: 0; stroke-linejoin: miter; stroke-miterlimit: 4; fill: rgb(255,255,255); fill-rule: nonzero; opacity: 1;" vector-effect="non-scaling-stroke"  transform=" translate(-255.95, -256.3)" d="M 443.6 387.1 L 312.4 255.4 L 443.9 125.4 C 449.29999999999995 120 449.29999999999995 111.2 443.9 105.80000000000001 L 406.5 68.20000000000002 C 403.9 65.60000000000002 400.4 64.20000000000002 396.7 64.20000000000002 C 393 64.20000000000002 389.5 65.70000000000002 386.9 68.20000000000002 L 256 197.8 L 124.9 68.3 C 122.30000000000001 65.7 118.80000000000001 64.3 115.10000000000001 64.3 C 111.4 64.3 107.9 65.8 105.30000000000001 68.3 L 68 105.9 C 62.6 111.30000000000001 62.6 120.10000000000001 68 125.5 L 199.5 255.5 L 68.4 387.1 C 65.80000000000001 389.70000000000005 64.30000000000001 393.20000000000005 64.30000000000001 396.90000000000003 C 64.30000000000001 400.6 65.70000000000002 404.1 68.4 406.70000000000005 L 105.80000000000001 444.30000000000007 C 108.50000000000001 447.00000000000006 112.00000000000001 448.4000000000001 115.60000000000001 448.4000000000001 C 119.10000000000001 448.4000000000001 122.7 447.1000000000001 125.4 444.30000000000007 L 256 313.1 L 386.7 444.20000000000005 C 389.4 446.90000000000003 392.9 448.30000000000007 396.5 448.30000000000007 C 400 448.30000000000007 403.6 447.00000000000006 406.3 444.20000000000005 L 443.7 406.6 C 446.3 404 447.8 400.5 447.8 396.8 C 447.7 393.2 446.2 389.7 443.6 387.1 z" stroke-linecap="round" />
</g>
</svg>